<?xml version="1.0" standalone="no"?>
<svg xmlns:xlink="http://www.w3.org/1999/xlink" id="wave" style="transform:rotate(0deg); transition: 0.3s" viewBox="0 0 1440 410" version="1.1" xmlns="http://www.w3.org/2000/svg"><defs><linearGradient id="sw-gradient-0" x1="0" x2="0" y1="1" y2="0"><stop stop-color="rgba(243, 62, 62, 1)" offset="0%"/><stop stop-color="rgba(255, 179, 11, 1)" offset="100%"/></linearGradient></defs><path style="transform:translate(0, 0px); opacity:1" fill="url(#sw-gradient-0)" d="M0,205L60,177.7C120,150,240,96,360,109.3C480,123,600,205,720,252.8C840,301,960,314,1080,280.2C1200,246,1320,164,1440,164C1560,164,1680,246,1800,232.3C1920,219,2040,109,2160,82C2280,55,2400,109,2520,123C2640,137,2760,109,2880,123C3000,137,3120,191,3240,184.5C3360,178,3480,109,3600,82C3720,55,3840,68,3960,61.5C4080,55,4200,27,4320,34.2C4440,41,4560,82,4680,88.8C4800,96,4920,68,5040,102.5C5160,137,5280,232,5400,259.7C5520,287,5640,246,5760,191.3C5880,137,6000,68,6120,34.2C6240,0,6360,0,6480,13.7C6600,27,6720,55,6840,54.7C6960,55,7080,27,7200,54.7C7320,82,7440,164,7560,164C7680,164,7800,82,7920,54.7C8040,27,8160,55,8280,75.2C8400,96,8520,109,8580,116.2L8640,123L8640,410L8580,410C8520,410,8400,410,8280,410C8160,410,8040,410,7920,410C7800,410,7680,410,7560,410C7440,410,7320,410,7200,410C7080,410,6960,410,6840,410C6720,410,6600,410,6480,410C6360,410,6240,410,6120,410C6000,410,5880,410,5760,410C5640,410,5520,410,5400,410C5280,410,5160,410,5040,410C4920,410,4800,410,4680,410C4560,410,4440,410,4320,410C4200,410,4080,410,3960,410C3840,410,3720,410,3600,410C3480,410,3360,410,3240,410C3120,410,3000,410,2880,410C2760,410,2640,410,2520,410C2400,410,2280,410,2160,410C2040,410,1920,410,1800,410C1680,410,1560,410,1440,410C1320,410,1200,410,1080,410C960,410,840,410,720,410C600,410,480,410,360,410C240,410,120,410,60,410L0,410Z"/></svg>